HIERARCHY
ROOT hip
{
	OFFSET 0.000000 0.000000 0.000000 
	CHANNELS 6 Xposition Yposition Zposition Xrotation Zrotation Yrotation
	JOINT abdomen
	{
		OFFSET 0.000000 3.402643 0.000000 
		CHANNELS 3 Xrotation Zrotation Yrotation
		JOINT chest
		{
			OFFSET 0.000000 8.438565 -0.680529 
			CHANNELS 3 Xrotation Zrotation Yrotation
			JOINT neck
			{
				OFFSET 0.000000 10.207942 -0.272212 
				CHANNELS 3 Xrotation Zrotation Yrotation
				JOINT head
				{
					OFFSET 0.000000 3.130431 0.000000 
					CHANNELS 3 Xrotation Zrotation Yrotation
					End Site
					{
						OFFSET 0.000000 3.130435 0.000000 
					}
				}
			}
			JOINT lCollar
			{
				OFFSET 3.470700 6.669187 -0.816635 
				CHANNELS 3 Yrotation Zrotation Xrotation
				JOINT lShldr
				{
					OFFSET 3.198488 0.000000 0.000000 
					CHANNELS 3 Zrotation Yrotation Xrotation
					JOINT lForeArm
					{
						OFFSET 10.139888 0.000000 0.000000 
						CHANNELS 3 Yrotation Zrotation Xrotation
						JOINT lHand
						{
							OFFSET 8.370511 0.000000 0.000000 
							CHANNELS 3 Zrotation Yrotation Xrotation
							End Site
							{
								OFFSET 4.083176 0.000000 0.000000 
							}
						}
					}
				}
			}
			JOINT rCollar
			{
				OFFSET -3.470700 6.669187 -0.816635 
				CHANNELS 3 Yrotation Zrotation Xrotation
				JOINT rShldr
				{
					OFFSET -3.198488 0.000000 0.000000 
					CHANNELS 3 Zrotation Yrotation Xrotation
					JOINT rForeArm
					{
						OFFSET -10.139888 0.000000 0.000000 
						CHANNELS 3 Yrotation Zrotation Xrotation
						JOINT rHand
						{
							OFFSET -8.370511 0.000000 0.000000 
							CHANNELS 3 Zrotation Yrotation Xrotation
							End Site
							{
								OFFSET -4.083176 0.000000 0.000000 
							}
						}
					}
				}
			}
		}
	}
	JOINT lThigh
	{
		OFFSET 5.308129 -1.633274 1.361059 
		CHANNELS 3 Xrotation Zrotation Yrotation
		JOINT lShin
		{
			OFFSET -2.041588 -20.007561 0.000000 
			CHANNELS 3 Xrotation Zrotation Yrotation
			JOINT lFoot
			{
				OFFSET 0.000000 -19.190928 -1.224953 
				CHANNELS 3 Xrotation Yrotation Zrotation
				End Site
				{
					OFFSET 0.000000 -2.449906 4.627600 
				}
			}
		}
	}
	JOINT rThigh
	{
		OFFSET -5.308129 -1.633274 1.361059 
		CHANNELS 3 Xrotation Zrotation Yrotation
		JOINT rShin
		{
			OFFSET 2.041588 -20.007561 0.000000 
			CHANNELS 3 Xrotation Zrotation Yrotation
			JOINT rFoot
			{
				OFFSET 0.000000 -19.190928 -1.224953 
				CHANNELS 3 Xrotation Yrotation Zrotation
				End Site
				{
					OFFSET 0.000000 -2.449906 4.627600 
				}
			}
		}
	}
}
MOTION
Frames: 6
Frame Time: 0.033333
26.387077 36.170666 0.649659 -34.121319 19.538305 42.182961 42.455338 2.960627 -4.673453 -20.839844 0.000000 0.000000 30.714211 23.067461 5.810530 8.586096 -4.084739 0.307924 -4.754608 -0.109225 -0.002657 -56.147541 14.226413 -5.160872 -19.315182 0.707282 16.270044 3.397988 -13.071035 -6.128603 4.754608 0.109225 -0.002676 70.767990 -6.482543 -18.679176 2.633021 -0.026625 10.897616 -2.513168 29.922482 24.317062 14.361871 32.779579 15.221020 71.087578 11.111419 -8.947497 -25.916794 -0.992473 -6.278788 27.431887 -19.079748 -22.983955 64.348343 10.893329 5.790719 -23.338005 6.031130 10.629045 
26.151455 36.872669 0.303923 -31.487200 17.733961 43.934971 42.001003 3.125708 -4.611290 -20.839844 0.000000 0.000000 29.340721 23.451519 5.579965 8.586096 -4.084739 0.307924 -4.754608 -0.109225 -0.002657 -57.185902 15.369414 -5.051034 -18.785818 0.546738 16.603352 3.723791 -13.464139 -6.372280 4.754608 0.109225 -0.002676 70.964104 -8.265281 -19.284887 2.625825 -0.011190 11.679214 -2.925061 31.453533 25.215611 10.866609 31.803768 13.509336 69.008690 10.242856 -8.717988 -25.778959 -0.610116 -5.254180 25.160679 -18.220802 -22.824362 61.465290 12.514471 4.032082 -23.370499 5.817490 8.973248 
25.861206 37.600014 -0.145250 -28.722862 15.561239 45.484989 41.738529 3.630620 -4.572234 -20.839844 0.000000 0.000000 27.881756 23.549824 5.620052 8.586096 -4.084739 0.307924 -4.754608 -0.109225 -0.002657 -58.198013 16.628563 -5.578390 -18.760088 -0.376299 16.684616 4.080519 -13.953866 -5.656432 4.754608 0.109225 -0.002676 71.011887 -9.714143 -19.518074 2.610612 0.005873 12.832017 -3.213822 32.953453 26.084051 7.108859 30.947191 11.958335 66.586189 9.285994 -8.784801 -25.365517 -0.473842 -5.096534 22.459091 -17.528843 -22.820341 58.358578 14.045834 2.248414 -23.352770 5.792389 7.520363 
25.480011 38.324718 -0.705793 -25.667276 13.025071 46.905148 41.515434 3.979195 -4.737247 -20.839844 0.000000 0.000000 26.291540 23.854139 5.791685 8.586096 -4.084739 0.307924 -4.754608 -0.109225 -0.002657 -58.909050 18.148022 -6.512544 -19.329679 -1.592717 16.465002 3.943948 -13.998123 -4.658686 4.754608 0.109225 -0.002676 71.264435 -10.762471 -19.610735 2.604127 0.029833 13.652839 -3.040723 34.111645 26.697231 2.654313 30.062153 10.465244 64.284637 8.115492 -8.671838 -24.652451 -0.432520 -4.745230 18.912119 -17.166409 -22.937969 55.423077 15.374723 0.643026 -22.842953 6.196754 5.925751 
25.032944 39.010361 -1.378241 -22.295546 10.346346 48.161373 41.670795 4.088866 -5.059117 -20.839844 0.000000 0.000000 24.012257 23.935690 6.019067 8.586096 -4.084739 0.307924 -4.754608 -0.109225 -0.002657 -59.292530 19.193180 -6.930540 -19.884895 -2.775369 16.598261 3.938882 -13.738820 -4.073663 4.754608 0.109225 -0.002676 71.605362 -11.124027 -19.414150 2.605219 0.035144 13.936156 -2.423725 34.620113 26.698935 -2.383784 28.731245 8.840144 62.180634 6.825327 -8.328641 -23.552643 -0.391415 -3.867153 14.528492 -17.235125 -22.983755 52.845814 16.214548 -0.626062 -21.779852 6.749288 4.626452 
24.569675 39.512321 -2.138845 -18.794403 7.817555 49.371891 42.376305 4.224519 -5.317272 -20.839844 0.000000 0.000000 20.873991 23.628328 5.908206 8.586096 -4.084739 0.307924 -4.754608 -0.109225 -0.002657 -59.592819 19.323128 -6.562167 -20.074186 -3.436110 17.657040 4.123629 -13.793715 -3.307605 4.754608 0.109225 -0.002676 71.801201 -11.080019 -19.199492 2.606139 0.041228 14.170654 -1.871166 35.015739 26.864916 -7.685749 27.273735 7.335054 60.518707 5.526350 -8.139492 -22.402914 -0.774163 -3.238319 9.987535 -17.976910 -23.254766 50.918423 16.720695 -1.355136 -20.989956 7.242552 4.580660 
